<svg height="512" viewBox="0 0 60 60" width="512" xmlns="http://www.w3.org/2000/svg"><g id="Page-1" fill="none" fill-rule="evenodd"><g id="019---Technology-Engineering" fill-rule="nonzero" transform="translate(0 -1)"><g id="Colour" transform="translate(1 1)"><path id="Shape" d="m10 30c-.00134749 10.1187628 7.9228253 18.4657808 18.028 18.99.5399582.0182517.9690861.4597412.972 1v8.01c-.0015832.2745665-.1152127.5365807-.3145781.7253736-.1993653.1887929-.4671763.2879914-.7414219.2746264-.56-.024-1.116-.066-1.664-.128-.7910902-.0991947-1.4200251-.7117936-1.54-1.5l-.63-3.853c-2.9464495-.6085787-5.74984-1.7733773-8.26-3.432l-3.18 2.281c-.6444361.4740999-1.5244533.4659516-2.16-.02-.69-.58-1.36-1.18-2.01-1.831-.64432701-.640371-1.25514104-1.3136015-1.83-2.017-.48695059-.6359486-.49510233-1.5171517-.02-2.162l2.28-3.178c-1.65764203-2.5126416-2.82170407-5.3179293-3.43-8.266l-3.85-.631c-.79940113-.1333164-1.4124247-.782304-1.5-1.588-.19687134-1.7946169-.19687134-3.6053831 0-5.4.09910158-.7913232.71163621-1.4206004 1.5-1.541l3.85-.63c.60829593-2.9480707 1.77235797-5.7533584 3.43-8.266l-2.28-3.18c-.47309886-.6440232-.46495398-1.5228559.02-2.158.56957007-.7069877 1.18064699-1.3795062 1.83-2.014.63807996-.64479432 1.30896992-1.25627213 2.01-1.832.6355467-.48595157 1.5155639-.49409987 2.16-.02l3.18 2.282c2.5103269-1.65851982 5.3136314-2.82362205 8.26-3.433l.63-3.852c.1223231-.78918372.7487048-1.40417667 1.54-1.512.5466667-.05466667 1.1023333-.09433333 1.667-.119.2738151-.0128098.5410005.08666887.7397664.27543044.198766.18876157.3118982.45045819.3132336.72456956v8.012c-.0029139.5402588-.4320418.9817483-.972 1-10.1044028.5241792-18.02828307 8.8700101-18.028 18.988z" fill="#e8edfc"/><path id="Shape" d="m28.028 11.011c.5399582-.0182517.9690861-.4597412.972-1v-8.011c-.0013354-.27411137-.1144676-.53580799-.3132336-.72456956-.1987659-.18876157-.4659513-.28824024-.7397664-.27543044-.562.02333333-1.1176667.06266667-1.667.118-.2026192.02568765-.3990301.08732003-.58.182.1895252.18386801.2975612.43595207.3.7v8.012c-.0029139.5402588-.4320418.9817483-.972 1-10.1055367.523882-18.03056374 8.8703931-18.03056374 18.9895s7.92502704 18.465618 18.03056374 18.9895c.5399582.0182517.9690861.4597412.972 1v8.009c-.00255.2640245-.1105685.5160675-.3.7.1798834.0913275.3745866.1499078.575.173.548.062 1.1.1 1.664.128.2752608.0147848.5445487-.0839171.7450549-.2730846s.3146994-.4522607.3159451-.7279154v-8.014c-.0029139-.5402588-.4320418-.9817483-.972-1-10.1055367-.523882-18.03056374-8.8703931-18.03056374-18.9895s7.92502704-18.465618 18.03056374-18.9895z" fill="#cad9fc"/><path id="Shape" d="m29 44.044c.0024087.2515835-.0985449.4931298-.2792624.6681762s-.4253587.2682499-.6767376.2578238c-7.9002743-.5004081-14.0517912-7.0538935-14.0517912-14.97s6.1515169-14.4695919 14.0517912-14.97c.2513789-.0104261.4960201.0827774.6767376.2578238s.2816711.4165927.2792624.6681762z" fill="#a4c2f7"/><path id="Shape" d="m28.044 15.03c-.7644416.0535317-1.5236613.1655258-2.271.335.1423082.1644783.2226107.3735478.227.591v28.088c-.0043893.2174522-.0846918.4265217-.227.591.7473387.1694742 1.5065584.2814683 2.271.335.2513789.0104261.4960201-.0827774.6767376-.2578238s.2816711-.4165927.2792624-.6681762v-28.088c.0024087-.2515835-.0985449-.4931298-.2792624-.6681762s-.4253587-.2682499-.6767376-.2578238z" fill="#7facfa"/><g fill="#e8edfc"><circle id="Oval" cx="38" cy="5" r="2"/><circle id="Oval" cx="38" cy="55" r="2"/><circle id="Oval" cx="48" cy="45" r="2"/><circle id="Oval" cx="56" cy="30" r="2"/><circle id="Oval" cx="48" cy="15" r="2"/></g></g><g id="Whites" fill="#fff" transform="translate(1 1)"><path id="Shape" d="m24.11 53.517.63 3.853c.0921227.5709613.4504116 1.0640262.965 1.328.018.009.038.014.057.022.1633276.0781117.3382828.1291121.518.151.548.062 1.1.1 1.664.128.2852256.0154388.5630381-.0940799.761-.3-.5145884-.2639738-.8728773-.7570387-.965-1.328l-.63-3.853c-2.9464495-.6085787-5.74984-1.7733773-8.26-3.432l-1.36.976c2.0713807 1.1449995 4.3029139 1.9725545 6.62 2.455z"/><path id="Shape" d="m18.85 9.916c2.5103269-1.65851982 5.3136314-2.82362205 8.26-3.433l.63-3.853c.092272-.56995184.4481074-1.06293219.96-1.33-.1989876-.20189914-.4737278-.310779-.757-.3-.562.02333333-1.1176667.06266667-1.667.118-.1788167.02452744-.3526299.07717766-.515.156-.02.009-.042.015-.061.025-.5134292.26611415-.8708625.75925342-.964 1.33l-.63 3.853c-2.315864.48380107-4.5460253 1.3123586-6.616 2.458z"/><path id="Shape" d="m1.65 34.263 3.85.631c.60829593 2.9480707 1.77235797 5.7533584 3.43 8.266l-2.28 3.182c-.47309886.6440232-.46495398 1.5228559.02 2.158.57491274.7027156 1.18572589 1.3752776 1.83 2.015.65.651 1.32 1.251 2.01 1.831.6355467.4859516 1.5155639.4940999 2.16.02l.473-.339c-.56-.483-1.11-.978-1.643-1.512-.6442741-.6397224-1.2550873-1.3122844-1.83-2.015-.48695059-.6359486-.49510233-1.5171517-.02-2.162l2.28-3.182c-1.6571764-2.5114329-2.82122102-5.3153211-3.43-8.262l-3.85-.631c-.80135825-.1312929-1.41687368-.7807537-1.505-1.588-.19520974-1.7947992-.19353311-3.6055654.005-5.4.09910158-.7913232.71163621-1.4206004 1.5-1.541l3.85-.63c.60829593-2.9480707 1.772358-5.7533584 3.43-8.266l-2.28-3.182c-.47510233-.6448483-.46695059-1.5260514.02-2.162.5700011-.7050376 1.1810606-1.3758674 1.83-2.009.5333333-.53333333 1.0806667-1.03733333 1.642-1.512l-.472-.339c-.6444361-.47409987-1.5244533-.46595157-2.16.02-.70078778.575655-1.37166468 1.18678714-2.01 1.831-.64912029.6350702-1.26018325 1.3079073-1.83 2.015-.48695059.6359486-.49510233 1.5171517-.02 2.162l2.28 3.182c-1.65729279 2.511735-2.82134176 5.3159731-3.43 8.263l-3.85.63c-.78836379.1203996-1.40089842.7496768-1.5 1.541-.19687134 1.7946169-.19687134 3.6053831 0 5.4.08883373.8045376.70157453 1.4520003 1.5 1.585z"/></g><g id="Icons_copy" fill="#428dff"><path id="Shape" d="m2.486 25.751c-1.22646283.1988759-2.1751783 1.1822012-2.33 2.415-.20597488 1.8672285-.20798674 3.7513359-.006 5.619.14073563 1.2518972 1.09528959 2.2583024 2.338 2.465l3.182.521c.61089087 2.6020162 1.64209544 5.0869726 3.053 7.357l-1.873 2.616c-.74629215 1.0119341-.72831241 2.3967822.044 3.389.59612793.7292859 1.23034397 1.4265898 1.9 2.089.614.615 1.293 1.233 2.108 1.918.9843433.7569503 2.3503116.7728431 3.352.039l2.629-1.886c2.2677679 1.4106359 4.750323 2.4421629 7.35 3.054l.522 3.187c.1984742 1.2268533 1.1818917 2.1760649 2.415 2.331.57.064 1.149.109 1.732.133h.085c.5211773-.0004099 1.022313-.2008642 1.4-.56.3926136-.3751769.6141865-.8949514.613-1.438v-8.014c-.005928-1.0708472-.8511413-1.9486194-1.921-1.995-9.5713713-.4996874-17.0757797-8.4060941-17.0757797-17.9905s7.5044084-17.4908126 17.0757797-17.9905c1.0715561-.0469757 1.9172242-.9274214 1.921-2v-8.01c.0015537-.54361645-.2204693-1.06396025-.614-1.439-.3929103-.38551391-.9292564-.58895553-1.479-.561-.582.023-1.159.065-1.751.125-1.2323941.15886126-2.2110436 1.11386007-2.4 2.342l-.521 3.184c-2.5996993.61226723-5.0822388 1.64412547-7.35 3.055l-2.629-1.882c-1.0110396-.73934747-2.3901163-.71729532-3.377.054-.7250437.59347225-1.41896714 1.22397793-2.079 1.889-.6802752.6649991-1.32072138 1.3695566-1.918 2.11-.76298033.9856537-.78254739 2.3569784-.048 3.364l1.885 2.632c-1.40965998 2.2698448-2.43952288 4.7544861-3.049 7.356zm4.993.558c.58140761-2.8244163 1.6967069-5.51186 3.286-7.918.2277162-.3459842.2185698-.7965423-.023-1.133l-2.281-3.185c-.21090885-.2782708-.21698038-.6611824-.015-.946.5481358-.6793275 1.13617313-1.3254673 1.761-1.935.6069145-.6131028 1.2443924-1.19517686 1.91-1.744.2864617-.21837426.6835383-.21837426.97 0l3.18 2.282c.3368751.2409578.7874271.2493087 1.133.021 2.4040794-1.5899545 5.0899552-2.70564686 7.913-3.287.4058856-.08366609.7181092-.40901496.785-.818l.629-3.851c.0451971-.3454131.3105245-.62088304.654-.679.529-.055 1.065-.094 1.619-.116l-.022 8.011c-10.6464699.5438023-18.99796708 9.3376108-18.99210022 19.9979582.00586686 10.6603475 8.36703822 19.4449583 19.01410022 19.9770418l-.014 8.014c-.537-.022-1.069-.064-1.594-.123-.3451681-.0504042-.6156697-.3225354-.664-.668l-.63-3.853c-.0668908-.408985-.3791144-.7343339-.785-.818-2.823065-.5818248-5.5089148-1.6978458-7.913-3.288-.3457786-.2280123-.7963336-.2192637-1.133.022l-3.183 2.284c-.2714536.2110884-.6486091.2212161-.931.025-.735-.619-1.372-1.2-1.946-1.773-.6132022-.605817-1.19496468-1.2426516-1.743-1.908-.21566724-.2881108-.21566724-.6838892 0-.972l2.279-3.182c.2412637-.3366664.2500123-.7872214.022-1.133-1.58945929-2.4056875-2.70477756-5.0928375-3.286-7.917-.08353116-.4055867-.40840108-.7177322-.817-.785l-3.85-.631c-.35838244-.059282-.63347247-.3499046-.673-.711-.1873193-1.7200254-.18530725-3.4554136.006-5.175.04979345-.3454735.32145221-.616725.667-.666l3.849-.63c.41014294-.0674404.7358054-.3815574.818-.789z"/><path id="Shape" d="m57 28c-1.2667854.0052514-2.3937454.8056491-2.816 2h-23.184v-3h16c1.6568542 0 3-1.3431458 3-3v-5.184c1.3775467-.4870363 2.2038721-1.8956662 1.9567957-3.3357331-.2470764-1.4400668-1.4956868-2.492694-2.9567957-2.492694s-2.7097193 1.0526272-2.9567957 2.492694c-.2470764 1.4400669.579249 2.8486968 1.9567957 3.3357331v5.184c0 .5522847-.4477153 1-1 1h-16v-3h11c.5522847 0 1-.4477153 1-1s-.4477153-1-1-1h-11v-2h6c1.6568542 0 3-1.3431458 3-3v-6.184c1.3775467-.4870363 2.2038721-1.89566623 1.9567957-3.33573306s-1.4956868-2.49269406-2.9567957-2.49269406-2.7097193 1.05262723-2.9567957 2.49269406.579249 2.84869676 1.9567957 3.33573306v6.184c0 .5522847-.4477153 1-1 1h-6.264c-.3440299-.6394271-1.0306312-1.0181337-1.755-.968-8.4269593.5337687-14.9885772 7.524153-14.9885772 15.968s6.5616179 15.4342313 14.9885772 15.968h.117c.6831604.0056781 1.3134742-.3668151 1.638-.968h6.264c.5522847 0 1 .4477153 1 1v6.184c-1.3775467.4870363-2.2038721 1.8956662-1.9567957 3.3357331.2470764 1.4400668 1.4956868 2.492694 2.9567957 2.492694s2.7097193-1.0526272 2.9567957-2.492694c.2470764-1.4400669-.579249-2.8486968-1.9567957-3.3357331v-6.184c0-1.6568542-1.3431458-3-3-3h-6v-2h11c.5522847 0 1-.4477153 1-1s-.4477153-1-1-1h-11v-3h16c.5522847 0 1 .4477153 1 1v5.184c-1.3775467.4870363-2.2038721 1.8956662-1.9567957 3.3357331.2470764 1.4400668 1.4956868 2.492694 2.9567957 2.492694s2.7097193-1.0526272 2.9567957-2.492694c.2470764-1.4400669-.579249-2.8486968-1.9567957-3.3357331v-5.184c0-1.6568542-1.3431458-3-3-3h-16v-3h23.184c.511019 1.4345815 2.0172125 2.2572889 3.5004302 1.9119918 1.4832176-.3452971 2.4711782-1.7486502 2.2960444-3.2614267-.1751339-1.5127765-1.4575966-2.6532831-2.9804746-2.6505651zm-8-13c.5522847 0 1 .4477153 1 1s-.4477153 1-1 1-1-.4477153-1-1 .4477153-1 1-1zm-10-10c.5522847 0 1 .44771525 1 1s-.4477153 1-1 1-1-.44771525-1-1 .4477153-1 1-1zm0 52c-.5522847 0-1-.4477153-1-1s.4477153-1 1-1 1 .4477153 1 1-.4477153 1-1 1zm10-10c-.5522847 0-1-.4477153-1-1s.4477153-1 1-1 1 .4477153 1 1-.4477153 1-1 1zm-33-16c.0084094-7.3406064 5.6787351-13.4314086 13-13.964v27.928c-7.3212649-.5325914-12.9915906-6.6233936-13-13.964zm41 1c-.5522847 0-1-.4477153-1-1s.4477153-1 1-1 1 .4477153 1 1-.4477153 1-1 1z"/></g></g></g></svg>