<svg id="Capa_1" enable-background="new 0 0 609.609 609.609" height="512" viewBox="0 0 609.609 609.609" width="512" xmlns="http://www.w3.org/2000/svg"><g><g id="Page-1_17_"><g id="_x30_19---Technology-Engineering" transform="translate(0 -1)"><path id="Shape_133_" d="m17.025 349.862 39.781 6.52c6.285 30.461 18.313 59.448 35.441 85.41l-23.558 32.879c-4.888 6.654-4.804 15.735.207 22.298 5.94 7.261 12.252 14.21 18.909 20.82 6.716 6.727 13.639 12.926 20.769 18.919 6.567 5.021 15.66 5.105 22.319.207l32.858-23.569c25.937 17.138 54.903 29.174 85.348 35.462l6.51 39.812c1.24 8.144 7.738 14.474 15.912 15.499 5.662.641 11.366 1.033 17.194 1.323 2.83.138 5.594-.884 7.653-2.83s3.236-4.648 3.258-7.482v-82.806c-.03-5.582-4.464-10.144-10.043-10.333-104.417-5.413-186.304-91.655-186.304-196.212s81.887-190.799 186.304-196.212c5.579-.189 10.013-4.75 10.043-10.333v-82.734c-.014-2.832-1.183-5.536-3.237-7.487s-4.815-2.978-7.644-2.846c-5.807.241-11.548.648-17.225 1.219-8.176 1.114-14.648 7.469-15.912 15.623l-6.51 39.812c-30.444 6.297-59.409 18.335-85.348 35.472l-32.858-23.579c-6.659-4.899-15.752-4.815-22.319.207-7.241 5.948-14.173 12.263-20.769 18.919-6.707 6.562-13.021 13.514-18.909 20.82-5.032 6.571-5.116 15.676-.207 22.339l23.558 32.879c-17.124 25.953-29.152 54.928-35.441 85.379l-39.781 6.51c-8.146 1.244-14.475 7.746-15.499 15.923-2.034 18.543-2.034 37.253 0 55.796.919 8.312 7.25 15.002 15.5 16.376z"/><path id="Shape_132_" d="m289.745 151.134c-81.631 5.171-145.192 72.886-145.192 154.68s63.562 149.509 145.192 154.68c2.597.108 5.125-.855 6.992-2.664s2.91-4.305 2.886-6.904v-290.224c.025-2.6-1.018-5.095-2.886-6.904-1.867-1.809-4.395-2.772-6.992-2.664z"/><path id="Shape_131_" d="m371.952 161.157h-51.663v20.665h51.663c17.099-.051 30.947-13.899 30.998-30.998v-63.897c14.234-5.032 22.772-19.587 20.219-34.467s-15.454-25.756-30.552-25.756c-15.097 0-27.999 10.876-30.552 25.756s5.985 29.435 20.219 34.467v63.897c0 5.707-4.626 10.333-10.332 10.333z"/><path id="Shape_130_" d="m320.288 223.153h103.327c5.707 0 10.333-4.626 10.333-10.333s-4.626-10.333-10.333-10.333h-103.327z"/><path id="Shape_129_" d="m320.288 450.471h51.663c5.707 0 10.333 4.626 10.333 10.333v63.897c-14.234 5.032-22.772 19.587-20.219 34.467s15.454 25.756 30.552 25.756c15.097 0 27.999-10.876 30.552-25.756s-5.985-29.435-20.219-34.467v-63.897c-.051-17.099-13.899-30.947-30.998-30.998h-51.663v20.665z"/><path id="Shape_128_" d="m475.278 347.145h-154.99v20.665h154.99c5.707 0 10.333 4.626 10.333 10.333v53.565c-14.234 5.032-22.772 19.587-20.219 34.467s15.454 25.756 30.552 25.756c15.097 0 27.999-10.876 30.552-25.756s-5.985-29.435-20.219-34.467v-53.565c-.052-17.099-13.9-30.947-30.999-30.998z"/><path id="Shape_127_" d="m578.605 274.816c-13.089.054-24.734 8.324-29.097 20.665h-229.22v20.665h229.22c5.28 14.823 20.843 23.324 36.169 19.756s25.534-18.068 23.724-33.699c-1.809-15.63-15.061-27.415-30.796-27.387z"/><path id="Shape_126_" d="m433.948 398.808c0-5.707-4.626-10.333-10.333-10.333h-103.327v20.665h103.327c5.707.001 10.333-4.625 10.333-10.332z"/><path id="Shape_125_" d="m506.276 233.486v-53.565c14.234-5.032 22.772-19.587 20.219-34.467s-15.454-25.756-30.552-25.756c-15.097 0-27.999 10.876-30.552 25.756s5.985 29.435 20.219 34.467v53.565c0 5.707-4.626 10.333-10.333 10.333h-154.99v20.665h154.99c17.1-.052 30.948-13.9 30.999-30.998z"/></g></g></g></svg>