<svg id="Capa_1" enable-background="new 0 0 607.776 607.776" height="512" viewBox="0 0 607.776 607.776" width="512" xmlns="http://www.w3.org/2000/svg"><g><g id="Page-1_17_"><g id="_x30_19---Technology-Engineering" transform="translate(0 -1)"><path id="Shape_65_" d="m25.182 251.741c-12.423 2.015-22.033 11.975-23.602 24.463-2.086 18.914-2.107 37.999-.061 56.918 1.426 12.681 11.095 22.875 23.683 24.969l32.232 5.277c6.188 26.357 16.634 51.529 30.925 74.523l-18.972 26.499c-7.56 10.25-7.377 24.278.446 34.329 6.038 7.387 12.463 14.451 19.246 21.161 6.22 6.23 13.097 12.49 21.353 19.428 9.971 7.668 23.807 7.828 33.954.395l26.63-19.104c22.971 14.289 48.118 24.738 74.452 30.935l5.288 32.283c2.01 12.427 11.972 22.042 24.463 23.612 5.774.648 11.639 1.104 17.544 1.347h.861c5.279-.004 10.356-2.035 14.181-5.673 3.977-3.8 6.221-9.065 6.209-14.566v-81.178c-.06-10.847-8.622-19.739-19.459-20.208-96.953-5.062-172.969-85.15-172.969-182.235s76.016-177.173 172.969-182.235c10.854-.476 19.421-9.394 19.459-20.259v-81.137c.016-5.507-2.233-10.777-6.22-14.576-3.98-3.905-9.413-5.966-14.982-5.683-5.895.233-11.74.658-17.737 1.266-12.484 1.609-22.397 11.283-24.311 23.723l-5.277 32.252c-26.334 6.202-51.481 16.654-74.452 30.946l-26.63-19.064c-10.241-7.489-24.211-7.266-34.207.547-7.344 6.012-14.373 12.398-21.059 19.135-6.891 6.736-13.378 13.873-19.428 21.373-7.729 9.984-7.927 23.875-.486 34.076l19.094 26.661c-14.279 22.992-24.711 48.161-30.885 74.513zm50.577 5.652c5.889-28.61 17.187-55.832 33.286-80.205 2.307-3.505 2.214-8.069-.233-11.477l-23.105-32.262c-2.136-2.819-2.198-6.697-.152-9.583 5.552-6.881 11.509-13.426 17.838-19.601 6.148-6.21 12.605-12.107 19.347-17.666 2.902-2.212 6.924-2.212 9.826 0l32.212 23.116c3.412 2.441 7.976 2.525 11.477.213 24.352-16.105 51.559-27.407 80.155-33.296 4.111-.847 7.274-4.143 7.952-8.286l6.371-39.009c.458-3.499 3.145-6.289 6.625-6.878 5.358-.557 10.788-.952 16.4-1.175l-.223 81.147c-107.843 5.508-192.44 94.585-192.38 202.569.059 107.984 84.754 196.968 192.603 202.357l-.142 81.178c-5.44-.223-10.828-.648-16.146-1.246-3.496-.511-6.236-3.267-6.726-6.767l-6.382-39.029c-.678-4.143-3.84-7.438-7.952-8.286-28.596-5.894-55.803-17.198-80.155-33.306-3.503-2.31-8.066-2.221-11.477.223l-32.242 23.136c-2.75 2.138-6.57 2.241-9.431.253-7.445-6.27-13.898-12.155-19.712-17.96-6.211-6.137-12.104-12.587-17.656-19.327-2.185-2.918-2.185-6.927 0-9.846l23.085-32.232c2.444-3.41 2.533-7.974.223-11.477-16.1-24.368-27.398-51.588-33.286-80.195-.846-4.108-4.137-7.27-8.276-7.952l-38.999-6.392c-3.63-.6-6.417-3.544-6.817-7.202-1.897-17.423-1.877-35.002.061-52.42.504-3.499 3.256-6.247 6.756-6.746l38.988-6.382c4.155-.68 7.454-3.861 8.287-7.989z"/><path id="Shape_64_" d="m577.382 274.522c-12.832.053-24.247 8.161-28.525 20.259h-234.842v-30.389h162.072c16.783 0 30.388-13.605 30.388-30.388v-52.511c13.954-4.933 22.324-19.202 19.821-33.789s-15.151-25.25-29.951-25.25-27.448 10.663-29.951 25.25 5.867 28.856 19.821 33.789v52.511c0 5.594-4.535 10.13-10.13 10.13h-162.07v-30.389h111.424c5.594 0 10.129-4.535 10.129-10.13s-4.535-10.13-10.129-10.13h-111.424v-20.259h60.777c16.783 0 30.389-13.605 30.389-30.389v-62.639c13.954-4.933 22.324-19.202 19.821-33.789s-15.151-25.25-29.951-25.25-27.448 10.663-29.951 25.25 5.867 28.856 19.821 33.789v62.641c0 5.594-4.535 10.13-10.13 10.13h-63.451c-3.485-6.477-10.44-10.313-17.777-9.805-85.361 5.407-151.827 76.216-151.827 161.748s66.466 156.341 151.827 161.748h1.185c6.92.058 13.305-3.716 16.592-9.805h63.451c5.594 0 10.13 4.535 10.13 10.13v62.641c-13.954 4.933-22.324 19.202-19.821 33.789s15.151 25.25 29.951 25.25 27.448-10.663 29.951-25.25-5.867-28.856-19.821-33.789v-62.641c0-16.783-13.605-30.389-30.389-30.389h-60.777v-20.259h111.424c5.594 0 10.129-4.535 10.129-10.129s-4.535-10.13-10.129-10.13h-111.424v-30.388h162.072c5.594 0 10.13 4.535 10.13 10.129v52.511c-13.954 4.933-22.324 19.202-19.821 33.789s15.151 25.25 29.951 25.25 27.448-10.663 29.951-25.25-5.867-28.856-19.821-33.789v-52.511c0-16.783-13.605-30.388-30.388-30.388h-162.074v-30.391h234.842c5.176 14.532 20.433 22.865 35.458 19.367 15.024-3.498 25.032-17.713 23.258-33.037-1.775-15.322-14.766-26.875-30.191-26.848zm-81.036-131.683c5.594 0 10.129 4.535 10.129 10.13s-4.535 10.13-10.129 10.13-10.129-4.535-10.129-10.13 4.534-10.13 10.129-10.13zm-101.295-101.295c5.594 0 10.13 4.535 10.13 10.13s-4.535 10.129-10.13 10.129-10.129-4.535-10.129-10.129 4.534-10.13 10.129-10.13zm0 526.734c-5.594 0-10.129-4.535-10.129-10.13s4.535-10.13 10.129-10.13 10.13 4.535 10.13 10.13-4.536 10.13-10.13 10.13zm101.295-101.295c-5.594 0-10.129-4.535-10.129-10.13s4.535-10.129 10.129-10.129 10.129 4.535 10.129 10.129-4.535 10.13-10.129 10.13zm-334.274-162.072c.085-74.357 57.523-136.053 131.684-141.448v282.897c-74.161-5.396-131.599-67.093-131.684-141.449zm415.31 10.129c-5.594 0-10.13-4.535-10.13-10.13s4.535-10.129 10.13-10.129 10.13 4.535 10.13 10.129-4.536 10.13-10.13 10.13z"/></g></g></g></svg>